<?xml version="1.0" encoding="utf-8"?>
<!-- Generator: Adobe Illustrator 19.2.0, SVG Export Plug-In . SVG Version: 6.00 Build 0)  -->
<svg version="1.1" id="Layer_1" xmlns="http://www.w3.org/2000/svg" xmlns:xlink="http://www.w3.org/1999/xlink" x="0px" y="0px"
	 viewBox="0 0 252.3 34.4" style="enable-background:new 0 0 252.3 34.4;" xml:space="preserve">
<style type="text/css">
	.st0{fill:#0000FF;}
	.st1{fill:#D900FF;}
</style>
<title>RLIETROMtitle</title>
<path class="st0" d="M17.7,7.5c-0.3-0.6-0.6-1.2-1-1.7c-0.4-0.5-0.9-1-1.4-1.5c-0.5-0.4-1-0.8-1.6-1c-0.5-0.2-1.1-0.4-1.7-0.4
	c-1,0-1.9,0.4-2.6,1.1c-0.8,0.9-1.5,1.9-1.9,3c-0.6,1.5-0.9,3-1.2,4.5c-0.3,1.9-0.4,3.8-0.4,5.7c0,1.9,0.1,3.7,0.4,5.6
	c0.2,1.6,0.6,3.1,1.1,4.6c0.4,1.1,1,2.2,1.8,3.1c0.6,0.7,1.5,1.1,2.4,1.2c0.5,0,1-0.1,1.4-0.2c0.5-0.1,1-0.4,1.5-0.7
	c0.6-0.4,1.1-0.8,1.5-1.3c0.5-0.6,1-1.3,1.3-2h3.4c-0.6,1.2-1.3,2.3-2.1,3.3c-0.7,0.9-1.5,1.6-2.4,2.2c-0.9,0.6-1.8,1-2.8,1.2
	c-1.1,0.3-2.2,0.4-3.2,0.4c-1.6,0-3.1-0.3-4.6-1c-1.3-0.7-2.4-1.8-3.2-3.1c-0.9-1.7-1.6-3.5-1.9-5.5C0.2,22.3,0,19.5,0,16.8
	c0-2.4,0.2-4.8,0.7-7.1C1.1,7.8,1.8,6,2.9,4.4c1-1.4,2.3-2.6,3.9-3.3c1.8-0.8,3.8-1.2,5.8-1.1c1.7,0,3.4,0.6,4.7,1.8
	c1.5,1.4,2.7,3,3.6,4.8L17.7,7.5z"/>
<path class="st0" d="M34.3,0.6l6.3,33.1h-5.9l-1.4-7.2h-6.1l-1.4,7.2h-3.3l6.3-33.1L34.3,0.6L34.3,0.6z M27.9,23.9h5L30.3,8.7
	L27.9,23.9z"/>
<path class="st1" d="M53.7,0.6c1.1,0,2.1,0.3,3,0.8c0.8,0.6,1.6,1.3,2.1,2.2c0.6,0.9,1,1.9,1.2,3c0.3,1.1,0.4,2.2,0.4,3.2
	c0,1.5-0.4,2.9-1.1,4.2c-0.7,1.3-1.7,2.3-3,2.9c1.3,0.4,2.4,1.2,3,2.4c0.7,1.3,1,2.8,1,4.3v5.9c0,1.6,0.5,2.5,1.6,2.9V34
	c-0.5,0.1-1,0.1-1.4,0.1c-0.8,0-1.6-0.1-2.4-0.3c-0.7-0.2-1.3-0.4-1.9-0.8c-0.5-0.4-0.9-0.9-1.2-1.4c-0.3-0.6-0.5-1.4-0.5-2.1V22
	c0-0.4-0.1-0.9-0.2-1.3c-0.1-0.4-0.4-0.8-0.6-1.1c-0.2-0.3-0.5-0.6-0.9-0.8c-0.3-0.2-0.6-0.3-1-0.3h-3.4v15.3h-5.8V0.6
	C42.6,0.6,53.7,0.6,53.7,0.6z M48.4,15.9h3.9c0.4,0,0.8-0.2,1-0.5c0.3-0.4,0.6-0.8,0.8-1.3c0.2-0.6,0.4-1.1,0.5-1.7
	c0.1-0.6,0.2-1.2,0.2-1.9c0-1-0.1-2-0.4-3c-0.2-0.8-0.5-1.6-1-2.3c-0.4-0.6-0.9-1.1-1.6-1.5c-0.6-0.4-1.3-0.5-2.1-0.5h-1.3V15.9z"/>
<path class="st1" d="M69.8,0.6v30.6h8.5v2.5H64V0.6H69.8L69.8,0.6z"/>
<path class="st1" d="M85.5,0.6v33.1h-5.8V0.6H85.5z"/>
<path class="st1" d="M105.7,0.6v2.6H94.1v12.6h6.7v2.6h-6.7v12.8h11.6v2.5H88.3V0.6H105.7z"/>
<path class="st0" d="M132.7,0c3.2-0.2,6.2,1.5,7.8,4.2c1.7,2.8,2.6,6.9,2.6,12.2c0,2.7-0.2,5.4-0.7,8.1c-0.4,2-1.2,3.9-2.4,5.6
	c-1.1,1.4-2.5,2.6-4.2,3.2c-2,0.8-4.1,1.1-6.2,1.1c-1.6,0-3.1-0.3-4.6-1c-1.3-0.7-2.4-1.8-3.2-3.1c-0.9-1.7-1.6-3.5-1.8-5.5
	c-0.4-2.7-0.6-5.4-0.6-8.1c0-2.4,0.2-4.8,0.7-7.2c0.4-1.9,1.2-3.7,2.3-5.3c1.1-1.4,2.5-2.6,4.1-3.3C128.5,0.3,130.6-0.1,132.7,0z
	 M131.3,2.9c-0.9,0-1.8,0.4-2.5,1.1c-0.8,0.8-1.4,1.8-1.8,2.9c-0.5,1.4-0.9,2.9-1.1,4.5c-0.3,1.9-0.4,3.8-0.4,5.7
	c0,1.9,0.1,3.8,0.4,5.6c0.2,1.6,0.6,3.1,1.1,4.6c0.4,1.1,1,2.2,1.7,3.1c0.6,0.7,1.4,1.1,2.3,1.2c0.9,0,1.9-0.4,2.5-1.1
	c0.8-0.8,1.5-1.8,1.9-2.9c0.6-1.4,1-2.9,1.2-4.5c0.3-1.9,0.4-3.8,0.4-5.7c0-2-0.1-3.9-0.4-5.8c-0.2-1.6-0.6-3.1-1.1-4.6
	c-0.4-1.1-1-2.1-1.8-3C133,3.3,132.2,3,131.3,2.9z"/>
<path class="st0" d="M159.2,6.8c-0.4-1.1-1-2-1.8-2.8c-0.5-0.5-1.2-0.8-1.9-0.9c-0.6,0-1.2,0.1-1.7,0.4c-0.5,0.3-0.9,0.6-1.3,1.1
	c-0.4,0.5-0.6,1-0.8,1.5c-0.2,0.6-0.3,1.2-0.3,1.8c0,1,0.3,2,0.8,2.8c0.5,0.9,1.2,1.7,1.9,2.5c0.8,0.8,1.6,1.6,2.5,2.4
	c0.9,0.8,1.7,1.7,2.5,2.6c0.8,1,1.4,2,1.9,3.1c0.5,1.2,0.8,2.6,0.8,3.9c0,1.4-0.2,2.7-0.7,4c-0.5,1.1-1.1,2.1-2,2.9
	c-0.9,0.8-1.9,1.4-3,1.7c-1.2,0.4-2.4,0.6-3.6,0.6c-1.7,0.1-3.4-0.4-4.8-1.4c-1.3-1.2-2.2-2.6-2.7-4.3l3-1.9
	c0.2,0.6,0.4,1.1,0.7,1.7c0.2,0.5,0.5,1,0.9,1.4c0.3,0.4,0.7,0.8,1.2,1c0.5,0.3,1.1,0.4,1.7,0.4c1.1,0.1,2.2-0.5,2.7-1.6
	c0.6-1.3,0.9-2.7,0.9-4.1c0-1-0.2-2-0.7-2.9c-0.5-0.9-1.1-1.8-1.8-2.5c-0.7-0.8-1.5-1.6-2.3-2.4c-0.8-0.8-1.6-1.6-2.3-2.5
	c-0.7-0.9-1.3-1.8-1.8-2.8c-0.5-1.1-0.7-2.2-0.7-3.4c0-1.2,0.2-2.3,0.5-3.4c0.3-1.1,0.9-2,1.6-2.9c0.7-0.8,1.7-1.5,2.7-2
	c1.2-0.5,2.5-0.8,3.9-0.7c1.5-0.1,2.9,0.3,4.2,1.1c1.2,0.9,2.1,2.1,2.6,3.6L159.2,6.8z"/>
<path class="st1" d="M180.3,0.6V6h-0.5c-0.5-1.8-1.3-2.7-2.4-2.7h-2.7v30.5h-5.9V3.2h-3.1c-1,0-1.7,0.9-2.2,2.7h-0.4V0.6H180.3z"/>
<path class="st1" d="M193.1,0.6c1.1,0,2.1,0.3,3,0.8c0.8,0.6,1.6,1.3,2.1,2.2c0.6,0.9,1,1.9,1.2,3c0.3,1.1,0.4,2.2,0.4,3.2
	c0,1.5-0.4,2.9-1.1,4.2c-0.7,1.3-1.7,2.3-3,2.9c1.3,0.4,2.4,1.2,3,2.4c0.7,1.3,1,2.8,1,4.3v5.9c0,1.6,0.5,2.5,1.6,2.9V34
	c-0.5,0.1-1,0.1-1.4,0.1c-0.8,0-1.6-0.1-2.4-0.3c-0.7-0.2-1.3-0.4-1.9-0.8c-0.5-0.4-0.9-0.9-1.2-1.4c-0.3-0.6-0.5-1.4-0.4-2.1V22
	c0-0.4-0.1-0.9-0.2-1.3c-0.1-0.4-0.4-0.8-0.6-1.1c-0.2-0.3-0.5-0.6-0.9-0.8c-0.3-0.2-0.6-0.3-1-0.3h-3.4v15.3H182V0.6H193.1
	L193.1,0.6z M187.8,15.9h3.9c0.4,0,0.8-0.2,1-0.5c0.3-0.4,0.6-0.8,0.8-1.3c0.2-0.6,0.4-1.1,0.5-1.7c0.1-0.6,0.2-1.2,0.2-1.9
	c0-1-0.1-2-0.4-3c-0.2-0.8-0.5-1.6-1-2.3c-0.4-0.6-0.9-1.1-1.6-1.5c-0.6-0.4-1.3-0.5-2.1-0.5h-1.3L187.8,15.9L187.8,15.9z"/>
<path class="st1" d="M216.4,0c3.2-0.2,6.2,1.5,7.8,4.2c1.7,2.8,2.6,6.9,2.6,12.2c0,2.7-0.2,5.4-0.7,8.1c-0.4,2-1.2,3.9-2.4,5.6
	c-1.1,1.4-2.5,2.6-4.2,3.2c-2,0.8-4.1,1.1-6.2,1.1c-1.6,0-3.1-0.3-4.6-1c-1.3-0.7-2.4-1.8-3.2-3.1c-0.9-1.7-1.6-3.5-1.8-5.5
	c-0.4-2.7-0.6-5.4-0.6-8.1c0-2.4,0.2-4.8,0.7-7.2c0.4-1.9,1.2-3.7,2.3-5.3c1.1-1.4,2.5-2.6,4.1-3.3C212.2,0.3,214.3-0.1,216.4,0z
	 M215,2.9c-0.9,0-1.8,0.4-2.5,1.1c-0.8,0.8-1.4,1.8-1.8,2.9c-0.5,1.4-0.9,2.9-1.1,4.5c-0.3,1.9-0.4,3.8-0.4,5.7
	c0,1.9,0.1,3.8,0.4,5.6c0.2,1.6,0.6,3.1,1.1,4.6c0.4,1.1,1,2.2,1.7,3.1c0.6,0.7,1.4,1.1,2.3,1.2c0.9,0,1.9-0.4,2.5-1.1
	c0.8-0.8,1.5-1.8,1.9-2.9c0.6-1.4,1-2.9,1.2-4.5c0.3-1.9,0.4-3.8,0.4-5.7c0-2-0.1-3.9-0.4-5.8c-0.2-1.6-0.6-3.1-1.1-4.6
	c-0.4-1.1-1-2.1-1.8-3C216.7,3.3,215.9,3,215,2.9z"/>
<path class="st1" d="M233.9,0.6l7.2,21.5l7-21.5h4.1v33.1h-5.8V12.4l-6.7,20.5L232.5,12v21.7h-3.4V0.6H233.9z"/>
</svg>
