<svg id="Layer_1" data-name="Layer 1" xmlns="http://www.w3.org/2000/svg" viewBox="0 0 252.29492 34.42725"><defs><style>.cls-1{fill:blue;}.cls-2{fill:red;}</style></defs><title>RLIETROMtitle2</title><path class="cls-1" d="M80.91748,188.15527a8.30442,8.30442,0,0,0-1.03662-1.74072,9.59747,9.59747,0,0,0-1.4082-1.48682,7.01628,7.01628,0,0,0-1.62354-1.03662A4.05977,4.05977,0,0,0,75.1665,183.5a3.55488,3.55488,0,0,0-2.5625,1.09521,8.64106,8.64106,0,0,0-1.87744,3.0127,20.4856,20.4856,0,0,0-1.1543,4.53809,38.4462,38.4462,0,0,0-.39111,5.67236,37.58937,37.58937,0,0,0,.39111,5.55566A23.44046,23.44046,0,0,0,70.687,207.9707a9.347,9.347,0,0,0,1.78027,3.12988,3.17007,3.17007,0,0,0,2.38623,1.15332,5.65675,5.65675,0,0,0,1.44775-.19531,5.29262,5.29262,0,0,0,1.50635-.68359,7.17414,7.17414,0,0,0,1.48633-1.31152,8.97062,8.97062,0,0,0,1.31055-2.03418h3.44287A18.79553,18.79553,0,0,1,81.915,211.335a10.55993,10.55993,0,0,1-2.42529,2.19043,9.31479,9.31479,0,0,1-2.79736,1.21289,13.36117,13.36117,0,0,1-3.24707.37207,10.13321,10.13321,0,0,1-4.57715-.958,7.68716,7.68716,0,0,1-3.16895-3.07129,16.49417,16.49417,0,0,1-1.8584-5.458,46.28967,46.28967,0,0,1-.60645-8.11768,33.27394,33.27394,0,0,1,.68457-7.08105,14.71275,14.71275,0,0,1,2.19092-5.30078,9.7284,9.7284,0,0,1,3.91211-3.30615,13.64794,13.64794,0,0,1,5.84912-1.13428,7.04321,7.04321,0,0,1,4.71387,1.7998,15.44025,15.44025,0,0,1,3.61865,4.812Z" transform="translate(-63.23438 -180.68311)"/><path class="cls-1" d="M97.50537,181.30908l6.3374,33.09717H97.97461L96.60547,207.208H90.46338l-1.44775,7.19824h-3.3252l6.25928-33.09717h5.55566Zm-6.416,23.31689h5.00732l-2.543-15.21875Z" transform="translate(-63.23438 -180.68311)"/><path class="cls-2" d="M116.90967,181.30908a5.30134,5.30134,0,0,1,2.99268.84131,7.0189,7.0189,0,0,1,2.09277,2.15137,10.16,10.16,0,0,1,1.23242,2.95361,13.35364,13.35364,0,0,1,.41113,3.24756,8.67952,8.67952,0,0,1-1.05664,4.186,6.38836,6.38836,0,0,1-3.01221,2.85547,4.73765,4.73765,0,0,1,2.97314,2.42578,8.89053,8.89053,0,0,1,1.01709,4.30322v5.94727q0,2.34668,1.604,2.85547v1.64258a7.54728,7.54728,0,0,1-1.44727.11719,9.82421,9.82421,0,0,1-2.38672-.27344,5.36883,5.36883,0,0,1-1.87744-.84082,4.04893,4.04893,0,0,1-1.23242-1.42871,4.412,4.412,0,0,1-.4502-2.07227V202.709a3.5529,3.5529,0,0,0-.23437-1.252,4.74971,4.74971,0,0,0-.60645-1.13477,3.538,3.538,0,0,0-.86084-0.84082,1.70687,1.70687,0,0,0-.9585-0.333H111.667v15.25781h-5.8291V181.30908h11.07178ZM111.667,196.606h3.91211a1.33585,1.33585,0,0,0,.998-0.48926,4.12487,4.12487,0,0,0,.7627-1.27148,9.182,9.182,0,0,0,.48877-1.72119,10.14373,10.14373,0,0,0,.17627-1.87793,11.6144,11.6144,0,0,0-.35205-2.97314,7.78173,7.78173,0,0,0-.99756-2.30859,4.5948,4.5948,0,0,0-1.58447-1.50586,4.158,4.158,0,0,0-2.07373-.52832H111.667V196.606Z" transform="translate(-63.23438 -180.68311)"/><path class="cls-2" d="M133.02783,181.30908v30.5542h8.48975v2.543H127.23779V181.30908h5.79Z" transform="translate(-63.23438 -180.68311)"/><path class="cls-2" d="M148.75391,181.30908v33.09717h-5.8291V181.30908h5.8291Z" transform="translate(-63.23438 -180.68311)"/><path class="cls-2" d="M168.98047,181.30908v2.62109H157.36084v12.59717h6.68994v2.582h-6.68994v12.75391h11.61963v2.543H151.53174V181.30908h17.44873Z" transform="translate(-63.23438 -180.68311)"/><path class="cls-1" d="M195.89551,180.68311a8.56473,8.56473,0,0,1,7.82324,4.20557q2.584,4.2063,2.584,12.18652a38.79961,38.79961,0,0,1-.74414,8.11816,14.4959,14.4959,0,0,1-2.36719,5.61328,9.72336,9.72336,0,0,1-4.186,3.248,16.28431,16.28431,0,0,1-6.20068,1.05566,10.13321,10.13321,0,0,1-4.57715-.958,7.68716,7.68716,0,0,1-3.16895-3.07129,16.21139,16.21139,0,0,1-1.83887-5.458,47.86306,47.86306,0,0,1-.58691-8.11768,32.809,32.809,0,0,1,.7041-7.15918,13.96286,13.96286,0,0,1,2.28906-5.28125,10.0462,10.0462,0,0,1,4.10742-3.26709A15.22185,15.22185,0,0,1,195.89551,180.68311Zm-1.40869,2.93408a3.4429,3.4429,0,0,0-2.48437,1.05615,8.36917,8.36917,0,0,0-1.81885,2.93457,20.53315,20.53315,0,0,0-1.13477,4.479,38.71042,38.71042,0,0,0-.39111,5.73145,40.2742,40.2742,0,0,0,.37158,5.61426,22.203,22.203,0,0,0,1.0957,4.59668,9.79029,9.79029,0,0,0,1.74072,3.11035,3.01921,3.01921,0,0,0,2.30811,1.15332,3.57349,3.57349,0,0,0,2.52344-1.05566,8.2625,8.2625,0,0,0,1.87793-2.93457,20.4367,20.4367,0,0,0,1.17383-4.459,36.27819,36.27819,0,0,0,.41064-5.67334,40.69474,40.69474,0,0,0-.39111-5.84863,21.78018,21.78018,0,0,0-1.13477-4.61621,8.7101,8.7101,0,0,0-1.79932-3.0127A3.22988,3.22988,0,0,0,194.48682,183.61719Z" transform="translate(-63.23438 -180.68311)"/><path class="cls-1" d="M222.41895,187.49023a7.17777,7.17777,0,0,0-1.81836-2.79736,3.09617,3.09617,0,0,0-1.93652-.87988,3.53241,3.53241,0,0,0-1.70215.41064,4.01609,4.01609,0,0,0-1.291,1.09521,5.315,5.315,0,0,0-.82129,1.54541,5.40739,5.40739,0,0,0-.29395,1.76074,5.33985,5.33985,0,0,0,.7627,2.79688,13.26229,13.26229,0,0,0,1.93652,2.46484q1.1748,1.19385,2.50391,2.40625a25.36182,25.36182,0,0,1,2.50391,2.64063,13.65417,13.65417,0,0,1,1.93652,3.14941,9.56038,9.56038,0,0,1,.7627,3.91211,9.85509,9.85509,0,0,1-.74316,3.9707,8.38375,8.38375,0,0,1-1.99512,2.85645,8.02221,8.02221,0,0,1-2.97266,1.7207,11.56622,11.56622,0,0,1-3.63867.56738,7.1883,7.1883,0,0,1-4.793-1.44727,9.847,9.847,0,0,1-2.71875-4.26465l3.0127-1.917q0.312,0.86133.68457,1.68262a6.576,6.576,0,0,0,.87988,1.44727,3.87671,3.87671,0,0,0,1.21289.998,3.64784,3.64784,0,0,0,1.72168.37109,2.90191,2.90191,0,0,0,2.73828-1.56445,8.60548,8.60548,0,0,0,.86035-4.14648,5.97881,5.97881,0,0,0-.7041-2.876,13.25664,13.25664,0,0,0-1.7793-2.52344q-1.07666-1.21216-2.30859-2.42578a32.193,32.193,0,0,1-2.30859-2.52344,13.09838,13.09838,0,0,1-1.7793-2.83594,8.0246,8.0246,0,0,1-.7041-3.40381,11.01609,11.01609,0,0,1,.52734-3.42334,8.10461,8.10461,0,0,1,1.60449-2.856,7.87659,7.87659,0,0,1,2.69922-1.97559,9.19907,9.19907,0,0,1,3.85352-.74316,7.431,7.431,0,0,1,4.167,1.09521,7.12426,7.12426,0,0,1,2.60156,3.56006Z" transform="translate(-63.23438 -180.68311)"/><path class="cls-2" d="M243.584,181.30908v5.35986h-0.46875q-0.78369-2.73853-2.38672-2.73877h-2.73828v30.47607h-5.86914V183.93018h-3.12891q-1.44873,0-2.19141,2.69922h-0.43066v-5.32031H243.584Z" transform="translate(-63.23438 -180.68311)"/><path class="cls-2" d="M256.29785,181.30908a5.30184,5.30184,0,0,1,2.99316.84131,7.01889,7.01889,0,0,1,2.09277,2.15137,10.14664,10.14664,0,0,1,1.23242,2.95361,13.32976,13.32976,0,0,1,.41113,3.24756,8.67952,8.67952,0,0,1-1.05664,4.186,6.385,6.385,0,0,1-3.0127,2.85547,4.73729,4.73729,0,0,1,2.97363,2.42578,8.89623,8.89623,0,0,1,1.01758,4.30322v5.94727q0,2.34668,1.60352,2.85547v1.64258a7.54374,7.54374,0,0,1-1.44727.11719,9.82993,9.82993,0,0,1-2.38672-.27344,5.3754,5.3754,0,0,1-1.87793-.84082,4.06367,4.06367,0,0,1-1.23242-1.42871,4.418,4.418,0,0,1-.44922-2.07227V202.709a3.53264,3.53264,0,0,0-.23535-1.252,4.71526,4.71526,0,0,0-.60645-1.13477,3.519,3.519,0,0,0-.86035-0.84082,1.70545,1.70545,0,0,0-.958-0.333h-3.44336v15.25781h-5.8291V181.30908h11.07129ZM251.05566,196.606h3.91211a1.33662,1.33662,0,0,0,.998-0.48926,4.11544,4.11544,0,0,0,.7627-1.27148,9.21885,9.21885,0,0,0,.48926-1.72119,10.18508,10.18508,0,0,0,.17578-1.87793,11.592,11.592,0,0,0-.35254-2.97314,7.75609,7.75609,0,0,0-.99707-2.30859,4.59614,4.59614,0,0,0-1.585-1.50586,4.15486,4.15486,0,0,0-2.07324-.52832h-1.33008V196.606Z" transform="translate(-63.23438 -180.68311)"/><path class="cls-2" d="M279.61426,180.68311a8.56577,8.56577,0,0,1,7.82422,4.20557q2.58252,4.2063,2.583,12.18652a38.73388,38.73388,0,0,1-.74414,8.11816,14.48063,14.48063,0,0,1-2.36621,5.61328,9.73049,9.73049,0,0,1-4.18652,3.248,16.2852,16.2852,0,0,1-6.20117,1.05566,10.13753,10.13753,0,0,1-4.57715-.958,7.69,7.69,0,0,1-3.16895-3.07129,16.20124,16.20124,0,0,1-1.83789-5.458,47.81254,47.81254,0,0,1-.58691-8.11768,32.77887,32.77887,0,0,1,.7041-7.15918,13.962,13.962,0,0,1,2.28809-5.28125,10.04915,10.04915,0,0,1,4.1084-3.26709A15.21693,15.21693,0,0,1,279.61426,180.68311Zm-1.4082,2.93408a3.4429,3.4429,0,0,0-2.48437,1.05615,8.36266,8.36266,0,0,0-1.81934,2.93457,20.50812,20.50812,0,0,0-1.13379,4.479,38.57513,38.57513,0,0,0-.3916,5.73145,40.12321,40.12321,0,0,0,.37207,5.61426,22.206,22.206,0,0,0,1.09473,4.59668,9.8,9.8,0,0,0,1.74121,3.11035,3.01866,3.01866,0,0,0,2.30859,1.15332,3.576,3.576,0,0,0,2.52344-1.05566,8.248,8.248,0,0,0,1.877-2.93457,20.40912,20.40912,0,0,0,1.17383-4.459,36.15725,36.15725,0,0,0,.41113-5.67334,40.62139,40.62139,0,0,0-.3916-5.84863,21.75367,21.75367,0,0,0-1.13379-4.61621,8.718,8.718,0,0,0-1.7998-3.0127A3.22988,3.22988,0,0,0,278.20605,183.61719Z" transform="translate(-63.23438 -180.68311)"/><path class="cls-2" d="M297.1416,181.30908l7.19922,21.51709,7.042-21.51709h4.14648v33.09717h-5.751V193.04541L303.08887,213.584l-7.31641-20.89062v21.71289H292.4082V181.30908h4.7334Z" transform="translate(-63.23438 -180.68311)"/></svg>