<svg id="Layer_1" data-name="Layer 1" xmlns="http://www.w3.org/2000/svg" viewBox="0 0 252.29492 34.42725"><defs><style>.cls-1{fill:blue;}</style></defs><title>RLIETROMtitle</title><path class="cls-1" d="M78.91748,78.15527a8.30442,8.30442,0,0,0-1.03662-1.74072,9.59748,9.59748,0,0,0-1.4082-1.48682,7.01628,7.01628,0,0,0-1.62354-1.03662A4.05977,4.05977,0,0,0,73.1665,73.5a3.55488,3.55488,0,0,0-2.5625,1.09521,8.64106,8.64106,0,0,0-1.87744,3.0127,20.4856,20.4856,0,0,0-1.1543,4.53809,38.4462,38.4462,0,0,0-.39111,5.67236,37.58937,37.58937,0,0,0,.39111,5.55566A23.44046,23.44046,0,0,0,68.687,97.9707a9.35191,9.35191,0,0,0,1.78027,3.12988,3.17066,3.17066,0,0,0,2.38623,1.15381,5.65674,5.65674,0,0,0,1.44775-.19531,5.31021,5.31021,0,0,0,1.50635-.68457,7.1709,7.1709,0,0,0,1.48633-1.311,8.95973,8.95973,0,0,0,1.31055-2.03418h3.44287A18.79553,18.79553,0,0,1,79.915,101.335a10.55129,10.55129,0,0,1-2.42529,2.19092,9.33944,9.33944,0,0,1-2.79736,1.21289,13.38594,13.38594,0,0,1-3.24707.37158,10.13316,10.13316,0,0,1-4.57715-.9585,7.68586,7.68586,0,0,1-3.16895-3.0708,16.49112,16.49112,0,0,1-1.8584-5.45752,46.29952,46.29952,0,0,1-.60645-8.11816,33.27394,33.27394,0,0,1,.68457-7.08105,14.71275,14.71275,0,0,1,2.19092-5.30078A9.7284,9.7284,0,0,1,68.022,71.81738a13.64794,13.64794,0,0,1,5.84912-1.13428,7.04321,7.04321,0,0,1,4.71387,1.7998,15.44025,15.44025,0,0,1,3.61865,4.812Z" transform="translate(-61.23438 -70.68311)"/><path class="cls-1" d="M95.50537,71.30908l6.3374,33.09717H95.97461L94.60547,97.208H88.46338l-1.44775,7.19824h-3.3252l6.25928-33.09717h5.55566ZM89.08936,94.626h5.00732l-2.543-15.21875Z" transform="translate(-61.23438 -70.68311)"/><path class="cls-1" d="M114.90967,71.30908a5.30134,5.30134,0,0,1,2.99268.84131,7.01889,7.01889,0,0,1,2.09277,2.15137,10.16,10.16,0,0,1,1.23242,2.95361,13.35364,13.35364,0,0,1,.41113,3.24756,8.67952,8.67952,0,0,1-1.05664,4.186,6.38836,6.38836,0,0,1-3.01221,2.85547,4.73765,4.73765,0,0,1,2.97314,2.42578,8.89053,8.89053,0,0,1,1.01709,4.30322v5.94678q0,2.34741,1.604,2.856v1.64307a7.54728,7.54728,0,0,1-1.44727.11719,9.82358,9.82358,0,0,1-2.38672-.27393,5.36883,5.36883,0,0,1-1.87744-.84082,4.04735,4.04735,0,0,1-1.23242-1.42822,4.41885,4.41885,0,0,1-.4502-2.07324V92.709a3.55088,3.55088,0,0,0-.23437-1.252,4.7497,4.7497,0,0,0-.60645-1.13477,3.538,3.538,0,0,0-.86084-0.84082,1.70687,1.70687,0,0,0-.9585-0.333H109.667v15.25781h-5.8291V71.30908h11.07178ZM109.667,86.606h3.91211a1.33585,1.33585,0,0,0,.998-0.48926,4.12488,4.12488,0,0,0,.7627-1.27148,9.182,9.182,0,0,0,.48877-1.72119,10.14373,10.14373,0,0,0,.17627-1.87793,11.6144,11.6144,0,0,0-.35205-2.97314,7.78173,7.78173,0,0,0-.99756-2.30859,4.5948,4.5948,0,0,0-1.58447-1.50586,4.158,4.158,0,0,0-2.07373-.52832H109.667V86.606Z" transform="translate(-61.23438 -70.68311)"/><path class="cls-1" d="M131.02783,71.30908v30.5542h8.48975v2.543H125.23779V71.30908h5.79Z" transform="translate(-61.23438 -70.68311)"/><path class="cls-1" d="M146.75391,71.30908v33.09717h-5.8291V71.30908h5.8291Z" transform="translate(-61.23438 -70.68311)"/><path class="cls-1" d="M166.98047,71.30908v2.62109H155.36084V86.52734h6.68994v2.582h-6.68994v12.75391h11.61963v2.543H149.53174V71.30908h17.44873Z" transform="translate(-61.23438 -70.68311)"/><path class="cls-1" d="M193.89551,70.68311a8.56421,8.56421,0,0,1,7.82324,4.20557q2.584,4.2063,2.584,12.18652a38.7914,38.7914,0,0,1-.74414,8.11768,14.50068,14.50068,0,0,1-2.36719,5.61426,9.71676,9.71676,0,0,1-4.186,3.24707,16.265,16.265,0,0,1-6.20068,1.05615,10.13316,10.13316,0,0,1-4.57715-.9585,7.68586,7.68586,0,0,1-3.16895-3.0708,16.20839,16.20839,0,0,1-1.83887-5.45752,47.87326,47.87326,0,0,1-.58691-8.11816,32.809,32.809,0,0,1,.7041-7.15918,13.96286,13.96286,0,0,1,2.28906-5.28125,10.0462,10.0462,0,0,1,4.10742-3.26709A15.22185,15.22185,0,0,1,193.89551,70.68311Zm-1.40869,2.93408a3.4429,3.4429,0,0,0-2.48437,1.05615,8.36917,8.36917,0,0,0-1.81885,2.93457,20.53315,20.53315,0,0,0-1.13477,4.479,38.71042,38.71042,0,0,0-.39111,5.73145,40.2742,40.2742,0,0,0,.37158,5.61426,22.21069,22.21069,0,0,0,1.0957,4.59668,9.79572,9.79572,0,0,0,1.74072,3.11035,3.0198,3.0198,0,0,0,2.30811,1.15381,3.574,3.574,0,0,0,2.52344-1.05615,8.26015,8.26015,0,0,0,1.87793-2.93408,20.43883,20.43883,0,0,0,1.17383-4.46,36.26726,36.26726,0,0,0,.41064-5.67285,40.69474,40.69474,0,0,0-.39111-5.84863,21.78018,21.78018,0,0,0-1.13477-4.61621,8.7101,8.7101,0,0,0-1.79932-3.0127A3.22988,3.22988,0,0,0,192.48682,73.61719Z" transform="translate(-61.23438 -70.68311)"/><path class="cls-1" d="M220.41895,77.49023a7.17777,7.17777,0,0,0-1.81836-2.79736,3.09617,3.09617,0,0,0-1.93652-.87988,3.53241,3.53241,0,0,0-1.70215.41064,4.01609,4.01609,0,0,0-1.291,1.09521,5.315,5.315,0,0,0-.82129,1.54541,5.40739,5.40739,0,0,0-.29395,1.76074,5.33985,5.33985,0,0,0,.7627,2.79688,13.26229,13.26229,0,0,0,1.93652,2.46484q1.1748,1.19385,2.50391,2.40625a25.36183,25.36183,0,0,1,2.50391,2.64063,13.65417,13.65417,0,0,1,1.93652,3.14941,9.56038,9.56038,0,0,1,.7627,3.91211,9.85673,9.85673,0,0,1-.74316,3.9707,8.377,8.377,0,0,1-1.99512,2.856A8.02987,8.02987,0,0,1,217.251,104.543a11.56622,11.56622,0,0,1-3.63867.56738,7.18568,7.18568,0,0,1-4.793-1.44727,9.847,9.847,0,0,1-2.71875-4.26465l3.0127-1.917q0.312,0.86133.68457,1.68262a6.56457,6.56457,0,0,0,.87988,1.44727,3.87517,3.87517,0,0,0,1.21289.99756,3.6419,3.6419,0,0,0,1.72168.37158,2.90108,2.90108,0,0,0,2.73828-1.56445,8.60623,8.60623,0,0,0,.86035-4.147,5.9769,5.9769,0,0,0-.7041-2.87549,13.272,13.272,0,0,0-1.7793-2.52344q-1.07666-1.21216-2.30859-2.42578a32.193,32.193,0,0,1-2.30859-2.52344,13.09839,13.09839,0,0,1-1.7793-2.83594,8.0246,8.0246,0,0,1-.7041-3.40381,11.01609,11.01609,0,0,1,.52734-3.42334,8.10461,8.10461,0,0,1,1.60449-2.856,7.87659,7.87659,0,0,1,2.69922-1.97559,9.19907,9.19907,0,0,1,3.85352-.74316,7.431,7.431,0,0,1,4.167,1.09521,7.12426,7.12426,0,0,1,2.60156,3.56006Z" transform="translate(-61.23438 -70.68311)"/><path class="cls-1" d="M241.584,71.30908v5.35986h-0.46875q-0.78369-2.73853-2.38672-2.73877h-2.73828v30.47607h-5.86914V73.93018h-3.12891q-1.44873,0-2.19141,2.69922h-0.43066V71.30908H241.584Z" transform="translate(-61.23438 -70.68311)"/><path class="cls-1" d="M254.29785,71.30908a5.30184,5.30184,0,0,1,2.99316.84131,7.01889,7.01889,0,0,1,2.09277,2.15137,10.14664,10.14664,0,0,1,1.23242,2.95361,13.32976,13.32976,0,0,1,.41113,3.24756,8.67952,8.67952,0,0,1-1.05664,4.186,6.385,6.385,0,0,1-3.0127,2.85547,4.73729,4.73729,0,0,1,2.97363,2.42578,8.89623,8.89623,0,0,1,1.01758,4.30322v5.94678q0,2.34741,1.60352,2.856v1.64307a7.54374,7.54374,0,0,1-1.44727.11719,9.82931,9.82931,0,0,1-2.38672-.27393,5.3754,5.3754,0,0,1-1.87793-.84082,4.06209,4.06209,0,0,1-1.23242-1.42822,4.42486,4.42486,0,0,1-.44922-2.07324V92.709a3.53064,3.53064,0,0,0-.23535-1.252,4.71526,4.71526,0,0,0-.60645-1.13477,3.519,3.519,0,0,0-.86035-0.84082,1.70545,1.70545,0,0,0-.958-0.333h-3.44336v15.25781h-5.8291V71.30908h11.07129ZM249.05566,86.606h3.91211a1.33662,1.33662,0,0,0,.998-0.48926,4.11544,4.11544,0,0,0,.7627-1.27148,9.21885,9.21885,0,0,0,.48926-1.72119,10.18508,10.18508,0,0,0,.17578-1.87793,11.592,11.592,0,0,0-.35254-2.97314,7.75609,7.75609,0,0,0-.99707-2.30859,4.59614,4.59614,0,0,0-1.585-1.50586,4.15486,4.15486,0,0,0-2.07324-.52832h-1.33008V86.606Z" transform="translate(-61.23438 -70.68311)"/><path class="cls-1" d="M277.61426,70.68311a8.56577,8.56577,0,0,1,7.82422,4.20557q2.58252,4.2063,2.583,12.18652a38.72569,38.72569,0,0,1-.74414,8.11768,14.48541,14.48541,0,0,1-2.36621,5.61426,9.721,9.721,0,0,1-4.18652,3.24707,16.26591,16.26591,0,0,1-6.20117,1.05615,10.13748,10.13748,0,0,1-4.57715-.9585,7.68873,7.68873,0,0,1-3.16895-3.0708,16.19824,16.19824,0,0,1-1.83789-5.45752,47.82272,47.82272,0,0,1-.58691-8.11816,32.77887,32.77887,0,0,1,.7041-7.15918,13.962,13.962,0,0,1,2.28809-5.28125,10.04915,10.04915,0,0,1,4.1084-3.26709A15.21693,15.21693,0,0,1,277.61426,70.68311Zm-1.4082,2.93408a3.4429,3.4429,0,0,0-2.48437,1.05615,8.36266,8.36266,0,0,0-1.81934,2.93457,20.50812,20.50812,0,0,0-1.13379,4.479,38.57514,38.57514,0,0,0-.3916,5.73145,40.12321,40.12321,0,0,0,.37207,5.61426,22.2137,22.2137,0,0,0,1.09473,4.59668,9.80547,9.80547,0,0,0,1.74121,3.11035,3.01924,3.01924,0,0,0,2.30859,1.15381,3.57655,3.57655,0,0,0,2.52344-1.05615,8.24562,8.24562,0,0,0,1.877-2.93408,20.41126,20.41126,0,0,0,1.17383-4.46,36.14636,36.14636,0,0,0,.41113-5.67285,40.62139,40.62139,0,0,0-.3916-5.84863,21.75367,21.75367,0,0,0-1.13379-4.61621,8.718,8.718,0,0,0-1.7998-3.0127A3.22988,3.22988,0,0,0,276.20605,73.61719Z" transform="translate(-61.23438 -70.68311)"/><path class="cls-1" d="M295.1416,71.30908l7.19922,21.51709,7.042-21.51709h4.14648v33.09717h-5.751V83.04541l-6.68945,20.53906-7.31641-20.89111v21.71289H290.4082V71.30908h4.7334Z" transform="translate(-61.23438 -70.68311)"/></svg>